<?xml version="1.0" encoding="utf-8"?>
<!-- Generator: Adobe Illustrator 16.0.0, SVG Export Plug-In . SVG Version: 6.00 Build 0)  -->
<!DOCTYPE svg PUBLIC "-//W3C//DTD SVG 1.1//EN" "http://www.w3.org/Graphics/SVG/1.1/DTD/svg11.dtd">
<svg version="1.1" id="Layer_1" xmlns="http://www.w3.org/2000/svg" xmlns:xlink="http://www.w3.org/1999/xlink" x="0px" y="0px"
   width="24px" height="24px" viewBox="500 500 24 24" enable-background="new 500 500 24 24" xml:space="preserve">
<path fill="#BBBBBB" d="M511.999,501.917c-4.04,0-7.316,3.226-7.316,7.203c0,2.355,1.15,4.448,2.926,5.762v4.319
  c0,0.796,0.656,1.442,1.464,1.442c0,0.797,0.655,1.439,1.463,1.439h2.926c0.809,0,1.463-0.643,1.463-1.439
  c0.809,0,1.465-0.646,1.465-1.442v-4.319c1.775-1.314,2.926-3.407,2.926-5.762C519.316,505.143,516.039,501.917,511.999,501.917z
   M514.926,518.482c0,0.399-0.326,0.719-0.73,0.719h-4.391c-0.404,0-0.731-0.319-0.731-0.719v-0.72h5.853V518.482z M516.391,512.93
  c-0.762,0.744-1.465,0.954-1.465,2.793v0.598h-1.463v-2.879l2.928-2.881v-1.44l-1.465-1.44l-1.463,1.44l-1.464-1.44l-1.462,1.44
  l-1.463-1.44l-1.464,1.44v1.44l2.927,2.881v2.879h-1.463v-0.598c0-1.839-0.704-2.049-1.464-2.793
  c-0.91-1.014-1.463-2.348-1.463-3.81c0-3.181,2.621-5.762,5.853-5.762c3.233,0,5.853,2.581,5.853,5.762
  C517.852,510.582,517.301,511.916,516.391,512.93z M511.999,513.441l-2.926-2.881v-1.44l1.463,1.44l1.462-1.44l1.464,1.44
  l1.463-1.44v1.44L511.999,513.441z"/>
</svg>
